<?xml version="1.0" encoding="utf-8"?>
<!-- Generator: Adobe Illustrator 21.0.0, SVG Export Plug-In . SVG Version: 6.00 Build 0)  -->
<svg version="1.1" id="Layer_1" xmlns="http://www.w3.org/2000/svg" xmlns:xlink="http://www.w3.org/1999/xlink" x="0px" y="0px"
	 viewBox="0 0 24 72" style="enable-background:new 0 0 24 72;" xml:space="preserve">
<style type="text/css">
	.st0{fill:#F79520;}
	.st1{fill:none;stroke:#F79520;stroke-miterlimit:10;}
	.st2{fill:#250C3E;}
	.st3{fill:none;stroke:#250C3E;stroke-miterlimit:10;}
	.st4{fill:#FFFFFF;}
	.st5{fill:none;stroke:#FFFFFF;stroke-miterlimit:10;}
</style>
<g>
	<path class="st0" d="M12,2c5.6,0,10,4.4,10,10s-4.4,10-10,10S2,17.6,2,12S6.4,2,12,2 M12,1C5.9,1,1,5.9,1,12s4.9,11,11,11
		s11-4.9,11-11S18.1,1,12,1L12,1z"/>
</g>
<g>
	<polyline class="st1" points="12,3.4 12,12 17.8,12 	"/>
</g>
<g>
	<path class="st2" d="M12,25.8c5.6,0,10,4.4,10,10s-4.4,10-10,10s-10-4.4-10-10S6.4,25.8,12,25.8 M12,24.7c-6.1,0-11,4.9-11,11
		s4.9,11,11,11s11-4.9,11-11S18.1,24.7,12,24.7L12,24.7z"/>
</g>
<g>
	<polyline class="st3" points="12,27.1 12,35.7 17.8,35.7 	"/>
</g>
<g>
	<path class="st4" d="M12,49.8c5.6,0,10,4.4,10,10s-4.4,10-10,10s-10-4.4-10-10S6.4,49.8,12,49.8 M12,48.7c-6.1,0-11,4.9-11,11
		s4.9,11,11,11s11-4.9,11-11S18.1,48.7,12,48.7L12,48.7z"/>
</g>
<g>
	<polyline class="st5" points="12,51.1 12,59.7 17.8,59.7 	"/>
</g>
</svg>
