<?xml version="1.0" encoding="utf-8"?>
<!-- Generator: Adobe Illustrator 21.0.0, SVG Export Plug-In . SVG Version: 6.00 Build 0)  -->
<svg version="1.1" id="Layer_1" xmlns="http://www.w3.org/2000/svg" xmlns:xlink="http://www.w3.org/1999/xlink" x="0px" y="0px"
	 viewBox="0 0 28 55" style="enable-background:new 0 0 28 55;" xml:space="preserve">
<style type="text/css">
	.st0{fill:none;stroke:#250C3E;stroke-width:0.995;stroke-miterlimit:10;}
	.st1{fill:none;stroke:#250C3E;stroke-miterlimit:10;}
	.st2{fill:none;stroke:#F7941D;stroke-width:0.995;stroke-miterlimit:10;}
	.st3{fill:none;stroke:#F7941D;stroke-miterlimit:10;}
	.st4{fill:none;stroke:#FFFFFF;stroke-width:0.995;stroke-miterlimit:10;}
	.st5{fill:none;stroke:#FFFFFF;stroke-miterlimit:10;}
</style>
<rect x="1.4" y="1.4" class="st0" width="25" height="16"/>
<polyline class="st1" points="1.3,1.4 13.5,9.4 14.4,9.4 26.6,1.4 "/>
<line class="st1" x1="18.4" y1="7.5" x2="26.6" y2="17.4"/>
<line class="st1" x1="9.6" y1="7.5" x2="1.3" y2="17.4"/>
<rect x="1.4" y="19.4" class="st2" width="25" height="16"/>
<polyline class="st3" points="1.3,19.4 13.5,27.4 14.4,27.4 26.6,19.4 "/>
<line class="st3" x1="18.4" y1="25.5" x2="26.6" y2="35.4"/>
<line class="st3" x1="9.6" y1="25.5" x2="1.3" y2="35.4"/>
<rect x="1.4" y="37.4" class="st4" width="25" height="16"/>
<polyline class="st5" points="1.3,37.4 13.5,45.4 14.4,45.4 26.6,37.4 "/>
<line class="st5" x1="18.4" y1="43.5" x2="26.6" y2="53.4"/>
<line class="st5" x1="9.6" y1="43.5" x2="1.3" y2="53.4"/>
</svg>
