<?xml version="1.0" encoding="utf-8"?>
<!-- Generator: Adobe Illustrator 21.0.0, SVG Export Plug-In . SVG Version: 6.00 Build 0)  -->
<svg version="1.1" id="Layer_1" xmlns="http://www.w3.org/2000/svg" xmlns:xlink="http://www.w3.org/1999/xlink" x="0px" y="0px"
	 viewBox="0 0 15 63" style="enable-background:new 0 0 15 63;" xml:space="preserve">
<style type="text/css">
	.st0{fill:none;stroke:#F7941D;stroke-miterlimit:10;}
	.st1{fill:none;stroke:#250C3E;stroke-miterlimit:10;}
	.st2{fill:none;stroke:#FFFFFF;stroke-miterlimit:10;}
</style>
<path class="st0" d="M12.3,19.6h-9c-0.6,0-1-0.4-1-1v-16c0-0.6,0.4-1,1-1h9c0.6,0,1,0.4,1,1v16C13.3,19.1,12.9,19.6,12.3,19.6z"/>
<line class="st0" x1="5.9" y1="4" x2="10.1" y2="4"/>
<line class="st0" x1="2.3" y1="6.3" x2="13.3" y2="6.3"/>
<line class="st0" x1="2.3" y1="16.6" x2="13.3" y2="16.6"/>
<path class="st1" d="M12.3,40.6h-9c-0.6,0-1-0.4-1-1v-16c0-0.6,0.4-1,1-1h9c0.6,0,1,0.4,1,1v16C13.3,40.1,12.9,40.6,12.3,40.6z"/>
<line class="st1" x1="5.9" y1="25" x2="10.1" y2="25"/>
<line class="st1" x1="2.3" y1="27.3" x2="13.3" y2="27.3"/>
<line class="st1" x1="2.3" y1="37.6" x2="13.3" y2="37.6"/>
<path class="st2" d="M12.3,61.6h-9c-0.6,0-1-0.4-1-1v-16c0-0.6,0.4-1,1-1h9c0.6,0,1,0.4,1,1v16C13.3,61.1,12.9,61.6,12.3,61.6z"/>
<line class="st2" x1="5.9" y1="46" x2="10.1" y2="46"/>
<line class="st2" x1="2.3" y1="48.3" x2="13.3" y2="48.3"/>
<line class="st2" x1="2.3" y1="58.6" x2="13.3" y2="58.6"/>
</svg>
