<?xml version="1.0" encoding="utf-8"?>
<!-- Generator: Adobe Illustrator 22.1.0, SVG Export Plug-In . SVG Version: 6.00 Build 0)  -->
<svg version="1.1" id="Layer_1" xmlns="http://www.w3.org/2000/svg" xmlns:xlink="http://www.w3.org/1999/xlink" x="0px" y="0px"
	 viewBox="0 0 17 80" width="17" style="enable-background:new 0 0 17 80;" xml:space="preserve">
<style type="text/css">
	.st0{fill:#F7941D;}
	.st1{fill:#250C3E;}
	.st2{fill:#FFFFFF;}
</style>
<g>
	<path class="st0" d="M14.7,0H2.3C1.2,0,0.3,0.9,0.3,2.1v21.9c0,1.2,0.9,2.1,2.1,2.1h12.3c1.1,0,2.1-0.9,2.1-2.1V2.1
		C16.7,0.8,15.9,0,14.7,0z M2.3,1.4h12.3c0.4,0,0.7,0.2,0.7,0.7v4.4H1.7V2.1C1.7,1.6,1.9,1.4,2.3,1.4z M15.3,7.8v12.7H1.7V7.8H15.3z
		 M14.7,24.6H2.3c-0.4,0-0.7-0.2-0.7-0.7v-2.1h13.7v2.1C15.3,24.3,15.1,24.6,14.7,24.6z"/>
	<rect x="5.9" y="3.3" class="st0" width="5.7" height="1.4"/>
</g>
<g>
	<path class="st1" d="M14.7,27H2.3c-1.2,0-2.1,0.9-2.1,2.1V51c0,1.2,0.9,2.1,2.1,2.1h12.3c1.1,0,2.1-0.9,2.1-2.1V29.1
		C16.7,27.8,15.9,27,14.7,27z M2.3,28.4h12.3c0.4,0,0.7,0.2,0.7,0.7v4.4H1.7v-4.4C1.7,28.6,1.9,28.4,2.3,28.4z M15.3,34.8v12.7H1.7
		V34.8H15.3z M14.7,51.6H2.3c-0.4,0-0.7-0.2-0.7-0.7v-2.1h13.7V51C15.3,51.3,15.1,51.6,14.7,51.6z"/>
	<rect x="5.9" y="30.3" class="st1" width="5.7" height="1.4"/>
</g>
<g>
	<path class="st2" d="M14.7,54H2.3c-1.2,0-2.1,0.9-2.1,2.1V78c0,1.2,0.9,2.1,2.1,2.1h12.3c1.1,0,2.1-0.9,2.1-2.1V56.1
		C16.7,54.8,15.9,54,14.7,54z M2.3,55.4h12.3c0.4,0,0.7,0.2,0.7,0.7v4.4H1.7v-4.4C1.7,55.6,1.9,55.4,2.3,55.4z M15.3,61.8v12.7H1.7
		V61.8H15.3z M14.7,78.6H2.3c-0.4,0-0.7-0.2-0.7-0.7v-2.1h13.7V78C15.3,78.3,15.1,78.6,14.7,78.6z"/>
	<rect x="5.9" y="57.3" class="st2" width="5.7" height="1.4"/>
</g>
</svg>
